<svg version="1.1" xmlns="http://www.w3.org/2000/svg" xmlns:xlink="http://www.w3.org/1999/xlink" x="0px" y="0px"
	 width="888.398px" height="888.562px" viewBox="0 0 888.398 888.562" enable-background="new 0 0 888.398 888.562"
	 xml:space="preserve">
<circle fill="#040305" cx="444.117" cy="444.281" r="444.281"/>
<path fill="#FFFFFF" d="M647.212,405.755L384.061,142.602c-10.291-10.293-23.971-15.962-38.52-15.962
	c-14.548,0-28.228,5.668-38.511,15.95c-10.298,10.285-15.97,23.963-15.97,38.515c0,14.548,5.668,28.227,15.96,38.519
	l224.659,224.659L307.02,668.927c-21.234,21.235-21.234,55.788-0.015,77.009c10.287,10.309,23.976,15.986,38.545,15.986
	c14.566,0,28.25-5.682,38.51-15.976l263.143-263.159c10.299-10.284,15.971-23.962,15.971-38.514
	C663.173,429.727,657.505,416.047,647.212,405.755z"/>
</svg>
