<svg xmlns="http://www.w3.org/2000/svg" width="170" height="50" viewBox="0 0 170 50"><path fill-rule="evenodd" clip-rule="evenodd" fill="#F8C453" d="M154.965 38.734c1.23-.313 2.1-.846 3.22-1.23.56-1.98-1.66-2.26-1.61-3.93 3.974-.346 3.01-2.805 4.424-3.685-1.21-.19.4-.39-1.208-.986 1.69-1.606 2.478-3.188.806-5.158.6-.043 1.484.087 1.61-.246-.352-.442-.887-.77-1.61-.982.474-.283 1.42-.278 2.413-.246-.42-.698-.42-1.024 0-1.72-.787-.882-2.375.253-2.412-.983 1.305.14 1.87-.168 2.814-.247-1.395-1.062.044-1.697 1.608-2.212.088-.79-.71-1.038-.4-1.964 2.173.25 1.166-1.06 2.012-1.966 1.975-2.122 5.23-2.292 2.01-5.162-.09-1.05 1.34-1.002.4-1.963-1.577-.333-3.587-.184-4.422.982-3.7-2.01-6.405.09-9.252-1.23.623.282-2.134-.173-2.414.74-.88-1.56-3.914-1.944-5.227-.984.812-.505-.167-.49-.806-.736.274 1.114-3.26-.266-2.012.736 1.01-.667.284.207.806.492-1.502-.64-4.153-.576-6.033-.983.918.067 1.513-.06 1.608-.493-1.604-.243-1.21.733-2.815.492.37-1.568-6.316.998-6.837-.245.406-.002.48.198.805.245-2.17-.9-6.405-1.426-9.652-.245-.063-.29.067-.7-.402-.738-1.96 1.22-3.856-.16-6.034-.246-1.19-.047-2.525.755-4.02.736.27.004.363-.39-.404-.49-1.67-.22-5.738.272-7.64-.738-1.44.663-6.345 1.6-8.046.738-7.245.594-17.22.54-26.142-.495-.718.627-4.92.665-6.035-.247-1.163.944-3.228.578-4.826.247-2.506.76-5.336.565-8.046.492-28.324-.782 27.543-.062 17.91-.492-3.593.69-10.784.37-11.665.245-1.327-.186-8.36.93-6.033 0C9.5 2.732 48.614 9.505 8.685 4.482c-.52 4.544-5.994 11.36-5.23 16.71-1.87 3.694-1.96 9.083-1.608 12.777-.173.383-1.266.21-.807.982-.513.97 1.175.595 1.208 1.228-4.792.81-.13 4.653-2.012 6.882 1.194.745-7.98 1.284 21.905 2.21 3.215-.75 5.84-.352 10.06-.49.036-.386-.057-.852.802-.738 1.076 0 .875.778 2.01.738 9.275-.668 27.435-.77 35.09-.396.24-.965-1.19-.91-1.61-1.474.914.12 2.054.488 2.815 0 2.708 2.7 10.715.14 14.077 1.23-.05-.442.4-.576 1.207-.492 1.29.113 1.418.935 2.816.982 4.513-1.34 12.69-.72 17.697-.983.238-1.393-1.7.07-2.413-.738 3.453-.568 8.944 1.77 13.673.737.386-.458-1.204-.82 0-.983.978.55 2.144.983 4.023.982.062-.292-.067-.698.402-.738.665.004.224.68.805.737.095-.38 1.495-1.178 2.01-.492-.004.325-.704.225-.802.49 3.312-.417 7.486.892 11.664.74-.41-.004-.505-.43 0-.492 1.93.11 4.56 1.49 7.642.244 7.09 1.763 11.382-4.392 10.86-5.406zm2.41-11.058c-.803-.083-1.255.05-1.204.493-3.266.106-4.24.403-6.435-.25 1.254-.495 1.58-.458 3.62-.736.068-.533-1.426-.11-2.012-.245.586-.38 1.57-.517 2.818-.494-1.003-.433-.587-.406 0-.982-.294-.61-1.213.81-2.012 0 .098-.31.8-.25.804 0 .436-.06.273-.49.806-.49 1.36-.095.632 1.086 2.412.736-.38-.506-1.58-.51-1.608-1.23.323.132.652.258 1.207.247.145-.417-.315-.462-.806-.492.264-.33.86-.457 1.608-.49-1.137-.496-.05-.896 0-1.72.358.19.91.263 1.61.245-.208.91-.687.618.802.49-.567.607 1.095 2.223-.802 1.967.46 1.437-.664 1.093-.806 2.95zM99.06 6.3c-.195.337-3.625.595-3.217-.247 1.282.463 1.684-.062 3.218.246zM63.263 41.927v.738c-1.622.252-1.79-.382-2.415-.738.407-.692 1.708.07 2.415 0z"/></svg>