<?xml version="1.0" encoding="utf-8"?>
<!-- Generator: Adobe Illustrator 16.0.0, SVG Export Plug-In . SVG Version: 6.00 Build 0)  -->
<!DOCTYPE svg PUBLIC "-//W3C//DTD SVG 1.1//EN" "http://www.w3.org/Graphics/SVG/1.1/DTD/svg11.dtd">
<svg version="1.1" id="Layer_1" xmlns="http://www.w3.org/2000/svg" xmlns:xlink="http://www.w3.org/1999/xlink" x="0px" y="0px"
	 width="170px" height="50px" viewBox="0 0 170 50" enable-background="new 0 0 170 50" xml:space="preserve">
<path fill-rule="evenodd" clip-rule="evenodd" fill="#F8C453" d="M154.965,38.734c1.229-0.313,2.099-0.846,3.219-1.229
	c0.561-1.981-1.659-2.261-1.61-3.93c3.975-0.347,3.011-2.806,4.425-3.686c-1.209-0.19,0.4-0.39-1.207-0.985
	c1.691-1.606,2.478-3.188,0.806-5.158c0.601-0.043,1.484,0.087,1.609-0.246c-0.351-0.442-0.886-0.771-1.609-0.982
	c0.474-0.283,1.42-0.278,2.413-0.246c-0.421-0.698-0.421-1.024,0-1.721c-0.788-0.881-2.376,0.254-2.413-0.982
	c1.305,0.142,1.869-0.167,2.814-0.246c-1.395-1.062,0.044-1.697,1.608-2.212c0.088-0.79-0.71-1.039-0.4-1.965
	c2.173,0.251,1.166-1.061,2.012-1.966c1.975-2.122,5.229-2.292,2.009-5.162c-0.09-1.051,1.34-1.002,0.401-1.963
	c-1.577-0.333-3.587-0.184-4.422,0.982c-3.699-2.01-6.405,0.091-9.252-1.229c0.623,0.281-2.134-0.174-2.414,0.738
	c-0.879-1.559-3.914-1.943-5.227-0.983c0.812-0.505-0.167-0.49-0.806-0.736c0.273,1.114-3.262-0.266-2.013,0.736
	c1.009-0.667,0.284,0.207,0.806,0.492c-1.502-0.64-4.153-0.576-6.033-0.983c0.917,0.067,1.512-0.059,1.607-0.493
	c-1.604-0.242-1.21,0.734-2.815,0.493c0.369-1.568-6.316,0.998-6.837-0.245c0.406-0.002,0.481,0.198,0.805,0.245
	c-2.171-0.9-6.406-1.426-9.653-0.245c-0.063-0.29,0.067-0.699-0.402-0.738c-1.961,1.222-3.856-0.16-6.034-0.245
	c-1.189-0.047-2.525,0.755-4.021,0.736c0.272,0.004,0.364-0.391-0.403-0.491c-1.67-0.22-5.738,0.273-7.64-0.737
	c-1.439,0.663-6.345,1.601-8.046,0.738C88.997,4.684,79.023,4.629,70.1,3.595c-0.718,0.627-4.919,0.665-6.035-0.247
	c-1.163,0.944-3.228,0.578-4.826,0.247c-2.505,0.759-5.335,0.565-8.045,0.492C22.87,3.305,78.737,4.025,69.105,3.595
	c-3.594,0.69-10.785,0.369-11.666,0.245c-1.326-0.186-8.359,0.93-6.032,0C9.501,2.732,48.614,9.505,8.685,4.482
	c-0.52,4.544-5.994,11.36-5.229,16.709c-1.87,3.695-1.962,9.084-1.609,12.778c-0.173,0.384-1.266,0.21-0.807,0.983
	c-0.513,0.971,1.175,0.595,1.208,1.228c-4.792,0.81-0.131,4.653-2.012,6.882c1.194,0.745-7.979,1.284,21.905,2.211
	c3.214-0.751,5.839-0.353,10.058-0.491c0.037-0.386-0.056-0.852,0.803-0.738c1.076,0,0.875,0.778,2.011,0.738
	c9.274-0.668,27.434-0.771,35.088-0.396c0.241-0.965-1.19-0.911-1.609-1.474c0.914,0.121,2.054,0.488,2.815,0
	c2.708,2.699,10.715,0.14,14.077,1.229c-0.05-0.441,0.399-0.575,1.207-0.491c1.288,0.113,1.417,0.935,2.815,0.982
	c4.513-1.341,12.691-0.719,17.697-0.983c0.238-1.392-1.7,0.071-2.413-0.737c3.453-0.568,8.944,1.77,13.673,0.737
	c0.386-0.457-1.204-0.82,0-0.982c0.978,0.549,2.144,0.983,4.023,0.982c0.062-0.291-0.067-0.697,0.402-0.737
	c0.665,0.004,0.224,0.681,0.805,0.737c0.095-0.379,1.495-1.177,2.01-0.491c-0.004,0.325-0.704,0.225-0.802,0.491
	c3.311-0.418,7.485,0.891,11.663,0.738c-0.409-0.003-0.505-0.43,0-0.491c1.931,0.111,4.559,1.49,7.642,0.244
	C151.195,45.903,155.488,39.748,154.965,38.734z M157.376,27.676c-0.804-0.083-1.256,0.05-1.205,0.493
	c-3.267,0.107-4.24,0.404-6.436-0.248c1.254-0.496,1.581-0.459,3.621-0.737c0.067-0.533-1.427-0.111-2.013-0.245
	c0.586-0.38,1.57-0.516,2.818-0.493c-1.004-0.433-0.588-0.406,0-0.982c-0.295-0.61-1.214,0.811-2.013,0
	c0.098-0.309,0.799-0.249,0.804,0c0.436-0.061,0.273-0.489,0.806-0.491c1.361-0.094,0.632,1.087,2.412,0.737
	c-0.381-0.506-1.58-0.509-1.608-1.23c0.323,0.132,0.652,0.258,1.207,0.247c0.146-0.417-0.314-0.462-0.805-0.492
	c0.264-0.33,0.859-0.457,1.608-0.49c-1.137-0.496-0.049-0.896,0-1.721c0.358,0.191,0.91,0.264,1.61,0.246
	c-0.208,0.91-0.687,0.618,0.802,0.491c-0.567,0.606,1.095,2.222-0.802,1.966C158.642,26.164,157.518,25.82,157.376,27.676z
	 M99.058,6.299c-0.195,0.338-3.625,0.596-3.217-0.246C97.122,6.516,97.524,5.991,99.058,6.299z M63.263,41.928v0.738
	c-1.622,0.252-1.789-0.382-2.415-0.738C61.255,41.236,62.556,41.997,63.263,41.928z"/>
</svg>
