<svg xmlns="http://www.w3.org/2000/svg" width="155" height="148.309" viewBox="0 0 155 148.309"><path fill="#F8C453" d="M77.33 0C37.972 0 3.74 27.093 0 66.796c1.404 1.51 2.94 3.24 4.516 5.15 5.59 6.79 17.374 23.963 30.353 24.362 12.978.398 17.57-4.993 17.57-4.993s6.99-4.392 10.385-17.772c3.396-13.38 8.986-27.157 9.985-28.156 0 0-3.595-10.583 1.597-12.98 0 0 1.597-.1 4.093 2.496 0 0 10.684-1.896 19.67 2.396 0 0 15.375.896 26.958 5.292l6.99-.102s4.293-.1 6.69 5.393c0 0 6.29 2.993 8.585 10.284 2.297 7.29-7.587 4.594-7.587 4.594s3.893 6.19.8 8.188c-3.096 1.997-4.694.398-4.694.398s-4.192-5.39-9.084-4.095c-4.893 1.3-17.673 5.693-17.673 5.693s-4.692.898-8.985 7.988c0 0-11.983 26.06-15.278 30.554-3.295 4.492-18.87 27.256-32.65 31.75-.63.205-1.292.396-1.98.572 8.497 2.932 17.634 4.502 27.067 4.502 41.708 0 77.67-30.64 77.67-74.26C155 30.427 119.04 0 77.33 0"/></svg>