<svg xmlns="http://www.w3.org/2000/svg" width="500" height="520" viewBox="0 0 500 520"><path fill="#F9C453" d="M0 0h500v520H0z"/><path fill="#FFF" d="M248.564 268.577c-39.446 0-73.757 27.155-77.505 66.948 1.406 1.514 2.947 3.246 4.525 5.162 5.604 6.806 17.413 24.018 30.422 24.418 13.01.4 17.612-5.004 17.612-5.004s7.004-4.4 10.407-17.81 9.006-27.22 10.007-28.22c0 0-3.603-10.61 1.6-13.01 0 0 1.602-.102 4.104 2.5 0 0 10.708-1.9 19.714 2.402 0 0 15.41.9 27.02 5.305l7.005-.102s4.304-.1 6.705 5.405c0 0 6.305 3 8.606 10.308 2.302 7.305-7.605 4.604-7.605 4.604s3.902 6.204.8 8.205c-3.102 2.002-4.703.4-4.703.4s-4.202-5.404-9.106-4.104c-4.903 1.3-17.713 5.705-17.713 5.705s-4.702.9-9.005 8.006c0 0-12.01 26.12-15.312 30.622-3.303 4.503-18.914 27.32-32.724 31.823-.633.204-1.297.395-1.986.572 8.516 2.938 17.674 4.513 27.13 4.513 41.804 0 77.85-30.71 77.85-74.43s-36.045-74.218-77.85-74.218M30.37 270.283h42.657l32.846 59.076 32.634-59.077h40.738l-54.602 93.84v51.186h-38.82v-50.12M343.05 359.218v-88.935h38.82v88.508c0 16.423 7.677 25.808 24.1 25.808 16.424 0 24.103-9.385 24.103-25.807v-88.507h38.818v88.935c0 39.028-26.66 58.224-62.92 58.224-36.26 0-62.92-19.196-62.92-58.224M77.28 139.008c-.47 1.098-1.41 1.098-1.882 0L30.688 31.086H60.65l19.925 50.04 22.905-52.08c.313-.784.94-.784 1.254 0l24.002 52.08 18.983-50.04h28.55L132.19 139.008c-.47 1.255-1.255 1.255-1.883 0l-26.67-57.255-26.354 57.255zM251.73 31.086h28.55v106.667h-28.55V103.87h-37.025v33.883h-28.552V31.086h28.552V79.87h37.024M318.086 137.753H290.16l51.928-108.55c.47-1.098 1.412-1.098 1.883 0l51.772 108.55H366.25l-4.08-9.098h-40.16l-3.924 9.098zm23.69-55.215l-10.67 24.784h21.65l-10.98-24.784zM412.528 55.086h-28.24v-24h85.03v24H441.08v82.667h-28.552M59.312 174.498H30.685v-24.33h86.2v24.33H88.256v83.805H59.312M119.112 204.235c0-32.6 26.877-55.34 58.05-55.34 31.17 0 58.05 22.74 58.05 55.34 0 32.6-26.88 55.5-58.05 55.5-31.173 0-58.05-22.9-58.05-55.5m86.517 0c0-17.016-10.338-30.214-28.47-30.214-18.13 0-28.467 13.2-28.467 30.215s10.338 30.374 28.468 30.374c18.13 0 28.47-13.36 28.47-30.375M243.48 204.235c0-32.6 26.877-55.34 58.05-55.34 31.17 0 58.05 22.74 58.05 55.34 0 32.6-26.88 55.5-58.05 55.5-31.173 0-58.05-22.9-58.05-55.5m86.516 0c0-17.016-10.338-30.214-28.468-30.214s-28.47 13.2-28.47 30.215 10.34 30.374 28.47 30.374 28.468-13.36 28.468-30.375M435.28 150.167h32.126s-42.622 60.747-42.782 60.747l44.85 47.39H431.94l-29.9-32.6v32.6h-28.944V150.166h28.945v49.297l33.24-49.297zM31.195 479.36l12.255-9.19c3.064 3.807 6.87 6.87 13.184 6.87 5.014 0 7.985-1.485 7.985-5.013 0-2.692-2.043-3.992-6.222-5.385l-7.428-2.506c-9.19-3.064-15.69-8.635-15.69-19.03 0-12.44 10.306-18.846 21.54-18.846 11.14 0 17.27 3.99 20.982 8.354l-9.655 10.12c-2.6-2.693-5.386-4.55-10.4-4.55-4.084 0-6.127 1.856-6.127 4.363 0 2.414 1.393 3.62 4.457 4.64l8.356 2.787c12.627 4.177 16.897 10.21 16.897 19.123 0 11.604-7.242 19.96-23.954 19.96-14.204.002-22.282-6.497-26.18-11.696M86.436 458.566c0-19.03 15.69-32.306 33.888-32.306s33.89 13.274 33.89 32.306-15.69 32.398-33.89 32.398c-18.198 0-33.888-13.366-33.888-32.398m50.508 0c0-9.934-6.035-17.64-16.62-17.64s-16.62 7.706-16.62 17.64 6.035 17.73 16.62 17.73 16.62-7.796 16.62-17.73M170.278 427.004h16.897v48.922h26.833v14.203h-43.73M217.35 458.566c0-19.03 15.69-32.306 33.887-32.306 18.198 0 33.89 13.274 33.89 32.306s-15.69 32.398-33.89 32.398c-18.198 0-33.888-13.366-33.888-32.398m50.507 0c0-9.934-6.035-17.64-16.62-17.64-10.584 0-16.62 7.706-16.62 17.64s6.036 17.73 16.62 17.73c10.585 0 16.62-7.796 16.62-17.73M308.893 458.66v31.47h-15.877v-63.962c0-.557.28-1.02 1.3-.186l39.646 32.677v-31.656h15.877v64.055c0 .74-.28 1.02-1.302.184l-39.645-32.585zM391.802 468.87v-12.996h29.804c0 .372.093 1.393.093 2.692 0 21.537-12.35 32.492-31.012 32.492-17.918 0-32.96-13.462-32.96-32.492 0-19.03 14.855-32.306 32.682-32.306 12.163 0 21.82 5.384 26.74 14.203l-13.464 8.17c-2.413-4.27-6.498-7.706-13.555-7.706-10.026 0-15.133 7.705-15.133 17.64s5.385 17.823 15.784 17.823c7.706 0 11.235-2.785 13.185-7.52h-12.163zM438.457 453.27h6.72c5.084 0 7.445-2.36 7.445-6.266 0-3.63-2.542-5.72-6.356-5.72-4.086 0-6.537 1.997-8.354 5.356l-12.802-6.99c3.178-6.628 10.623-11.984 21.882-11.984 13.438 0 22.246 7.354 22.246 17.704 0 10.26-4.903 16.16-15.526 18.25v5.628h-15.255v-15.98zm-1.543 28.87c0-5.266 4.268-8.896 9.08-8.896 4.72 0 9.08 3.63 9.08 8.896 0 5.267-4.36 8.897-9.08 8.897-4.812 0-9.08-3.63-9.08-8.897"/></svg>