<?xml version="1.0" encoding="utf-8"?>
<!-- Generator: Adobe Illustrator 16.0.0, SVG Export Plug-In . SVG Version: 6.00 Build 0)  -->
<!DOCTYPE svg PUBLIC "-//W3C//DTD SVG 1.1//EN" "http://www.w3.org/Graphics/SVG/1.1/DTD/svg11.dtd">
<svg version="1.1" id="Layer_1" xmlns="http://www.w3.org/2000/svg" xmlns:xlink="http://www.w3.org/1999/xlink" x="0px" y="0px"
	 width="500px" height="520px" viewBox="0 0 500 520" enable-background="new 0 0 500 520" xml:space="preserve">
<rect x="0" fill="#F9C453" width="500" height="520"/>
<path fill="#FFFFFF" d="M248.564,268.577c-39.446,0-73.757,27.155-77.505,66.948c1.407,1.514,2.948,3.246,4.526,5.162
	c5.604,6.806,17.413,24.018,30.422,24.418c13.009,0.4,17.612-5.004,17.612-5.004s7.005-4.402,10.408-17.812
	s9.006-27.219,10.007-28.22c0,0-3.603-10.608,1.601-13.01c0,0,1.601-0.101,4.103,2.501c0,0,10.708-1.9,19.714,2.402
	c0,0,15.411,0.9,27.02,5.305l7.005-0.102c0,0,4.304-0.1,6.705,5.405c0,0,6.305,3.001,8.606,10.308
	c2.302,7.305-7.605,4.604-7.605,4.604s3.902,6.204,0.801,8.205c-3.103,2.002-4.704,0.4-4.704,0.4s-4.202-5.404-9.106-4.104
	c-4.903,1.301-17.713,5.705-17.713,5.705s-4.703,0.9-9.006,8.006c0,0-12.01,26.119-15.312,30.622
	c-3.303,4.503-18.914,27.319-32.724,31.823c-0.632,0.205-1.296,0.396-1.985,0.573c8.516,2.938,17.674,4.513,27.129,4.513
	c41.805,0,77.85-30.71,77.85-74.431S290.369,268.577,248.564,268.577"/>
<polygon fill="#FFFFFF" points="30.369,270.283 73.027,270.283 105.873,329.359 138.507,270.283 179.245,270.283 124.643,364.123 
	124.643,415.309 85.824,415.309 85.824,365.189 "/>
<path fill="#FFFFFF" d="M343.051,359.218v-88.935h38.818v88.508c0,16.422,7.678,25.807,24.102,25.807
	c16.423,0,24.102-9.385,24.102-25.807v-88.508h38.818v88.935c0,39.028-26.661,58.224-62.92,58.224
	C369.711,417.441,343.051,398.246,343.051,359.218"/>
<path fill="#FFFFFF" d="M77.281,139.008c-0.471,1.098-1.412,1.098-1.883,0L30.687,31.086h29.964l19.924,50.039l22.905-52.079
	c0.313-0.784,0.941-0.784,1.254,0l24.002,52.079l18.983-50.039h28.552l-44.083,107.922c-0.471,1.255-1.255,1.255-1.883,0
	l-26.67-57.255L77.281,139.008z"/>
<polygon fill="#FFFFFF" points="251.729,31.086 280.281,31.086 280.281,137.753 251.729,137.753 251.729,103.871 214.705,103.871 
	214.705,137.753 186.153,137.753 186.153,31.086 214.705,31.086 214.705,79.871 251.729,79.871 "/>
<path fill="#FFFFFF" d="M318.086,137.753H290.16l51.928-108.549c0.471-1.099,1.412-1.099,1.883,0l51.771,108.549h-29.493
	l-4.08-9.098h-40.16L318.086,137.753z M341.775,82.538l-10.668,24.784h21.649L341.775,82.538z"/>
<polygon fill="#FFFFFF" points="412.528,55.086 384.289,55.086 384.289,31.086 469.319,31.086 469.319,55.086 441.08,55.086 
	441.08,137.753 412.528,137.753 "/>
<polygon fill="#FFFFFF" points="59.312,174.498 30.685,174.498 30.685,150.167 116.884,150.167 116.884,174.498 88.257,174.498 
	88.257,258.303 59.312,258.303 "/>
<path fill="#FFFFFF" d="M119.112,204.235c0-32.6,26.877-55.34,58.049-55.34c31.172,0,58.05,22.74,58.05,55.34
	c0,32.6-26.878,55.499-58.05,55.499C145.989,259.734,119.112,236.835,119.112,204.235 M205.629,204.235
	c0-17.016-10.337-30.214-28.468-30.214c-18.13,0-28.468,13.199-28.468,30.214s10.338,30.374,28.468,30.374
	C195.291,234.609,205.629,221.251,205.629,204.235"/>
<path fill="#FFFFFF" d="M243.479,204.235c0-32.6,26.878-55.34,58.05-55.34c31.171,0,58.05,22.74,58.05,55.34
	c0,32.6-26.879,55.499-58.05,55.499C270.357,259.734,243.479,236.835,243.479,204.235 M329.996,204.235
	c0-17.016-10.338-30.214-28.468-30.214s-28.469,13.199-28.469,30.214s10.339,30.374,28.469,30.374S329.996,221.251,329.996,204.235"
	/>
<path fill="#FFFFFF" d="M435.28,150.167h32.126c0,0-42.622,60.747-42.782,60.747l44.85,47.389H431.94l-29.899-32.6v32.6h-28.945
	V150.167h28.945v49.297L435.28,150.167z"/>
<path fill="#FFFFFF" d="M31.195,479.361l12.255-9.191c3.064,3.807,6.871,6.87,13.184,6.87c5.014,0,7.985-1.485,7.985-5.013
	c0-2.692-2.042-3.992-6.221-5.385l-7.428-2.506c-9.191-3.064-15.69-8.635-15.69-19.031c0-12.439,10.306-18.845,21.54-18.845
	c11.141,0,17.269,3.991,20.982,8.354l-9.655,10.119c-2.6-2.692-5.386-4.549-10.399-4.549c-4.085,0-6.128,1.856-6.128,4.363
	c0,2.414,1.393,3.62,4.457,4.641l8.356,2.786c12.627,4.177,16.897,10.211,16.897,19.123c0,11.604-7.242,19.96-23.954,19.96
	C43.172,491.059,35.094,484.56,31.195,479.361"/>
<path fill="#FFFFFF" d="M86.436,458.566c0-19.031,15.69-32.306,33.888-32.306c18.198,0,33.889,13.274,33.889,32.306
	s-15.69,32.398-33.889,32.398C102.126,490.965,86.436,477.598,86.436,458.566 M136.944,458.566c0-9.934-6.035-17.639-16.62-17.639
	s-16.619,7.705-16.619,17.639s6.034,17.73,16.619,17.73S136.944,468.5,136.944,458.566"/>
<polygon fill="#FFFFFF" points="170.278,427.004 187.175,427.004 187.175,475.926 214.008,475.926 214.008,490.129 170.278,490.129 
	"/>
<path fill="#FFFFFF" d="M217.349,458.566c0-19.031,15.69-32.306,33.888-32.306c18.198,0,33.889,13.274,33.889,32.306
	s-15.69,32.398-33.889,32.398C233.039,490.965,217.349,477.598,217.349,458.566 M267.857,458.566c0-9.934-6.035-17.639-16.62-17.639
	c-10.584,0-16.619,7.705-16.619,17.639s6.035,17.73,16.619,17.73C261.822,476.297,267.857,468.5,267.857,458.566"/>
<path fill="#FFFFFF" d="M308.893,458.659v31.47h-15.877v-63.961c0-0.557,0.279-1.021,1.301-0.186l39.645,32.677v-31.655h15.877
	v64.055c0,0.742-0.279,1.02-1.301,0.185L308.893,458.659z"/>
<path fill="#FFFFFF" d="M391.802,468.871v-12.997h29.804c0,0.372,0.093,1.393,0.093,2.692c0,21.537-12.349,32.492-31.011,32.492
	c-17.918,0-32.959-13.462-32.959-32.492c0-19.031,14.854-32.306,32.681-32.306c12.163,0,21.819,5.384,26.739,14.203l-13.463,8.169
	c-2.413-4.27-6.498-7.705-13.555-7.705c-10.027,0-15.134,7.705-15.134,17.639s5.385,17.824,15.784,17.824
	c7.705,0,11.234-2.785,13.184-7.52H391.802z"/>
<path fill="#FFFFFF" d="M438.457,453.269h6.72c5.084,0,7.445-2.36,7.445-6.265c0-3.631-2.542-5.72-6.356-5.72
	c-4.086,0-6.537,1.997-8.354,5.356l-12.802-6.99c3.178-6.628,10.623-11.984,21.882-11.984c13.438,0,22.246,7.354,22.246,17.704
	c0,10.259-4.903,16.161-15.526,18.249v5.629h-15.255V453.269z M436.914,482.14c0-5.266,4.268-8.896,9.08-8.896
	c4.721,0,9.079,3.631,9.079,8.896c0,5.267-4.358,8.897-9.079,8.897C441.182,491.037,436.914,487.406,436.914,482.14"/>
</svg>
