<?xml version="1.0" encoding="utf-8"?>
<!-- Generator: Adobe Illustrator 16.0.0, SVG Export Plug-In . SVG Version: 6.00 Build 0)  -->
<!DOCTYPE svg PUBLIC "-//W3C//DTD SVG 1.1//EN" "http://www.w3.org/Graphics/SVG/1.1/DTD/svg11.dtd">
<svg version="1.1" id="Layer_1" xmlns="http://www.w3.org/2000/svg" xmlns:xlink="http://www.w3.org/1999/xlink" x="0px" y="0px"
	 width="155px" height="148.309px" viewBox="0 0 155 148.309" enable-background="new 0 0 155 148.309" xml:space="preserve">
<path fill="#F8C453" d="M77.329,0C37.973,0,3.74,27.093,0,66.796c1.404,1.51,2.941,3.239,4.516,5.15
	c5.591,6.79,17.374,23.963,30.353,24.362c12.979,0.398,17.572-4.993,17.572-4.993s6.989-4.392,10.384-17.772
	c3.396-13.379,8.986-27.157,9.985-28.156c0,0-3.595-10.583,1.597-12.98c0,0,1.597-0.101,4.093,2.496c0,0,10.684-1.896,19.67,2.396
	c0,0,15.375,0.897,26.958,5.293l6.989-0.102c0,0,4.294-0.101,6.69,5.393c0,0,6.29,2.993,8.586,10.284
	c2.297,7.289-7.587,4.594-7.587,4.594s3.893,6.189,0.799,8.187c-3.095,1.997-4.693,0.398-4.693,0.398s-4.192-5.391-9.084-4.095
	c-4.893,1.299-17.673,5.692-17.673,5.692s-4.692,0.898-8.985,7.988c0,0-11.983,26.06-15.278,30.553
	c-3.295,4.492-18.871,27.256-32.649,31.75c-0.63,0.205-1.293,0.396-1.981,0.572c8.497,2.932,17.634,4.502,27.067,4.502
	c41.709,0,77.672-30.639,77.672-74.261C155,30.427,119.039,0,77.329,0"/>
</svg>
